<?xml version="1.0" standalone="no"?>
<!DOCTYPE svg PUBLIC "-//W3C//DTD SVG 20010904//EN"
 "http://www.w3.org/TR/2001/REC-SVG-20010904/DTD/svg10.dtd">
<svg version="1.0" xmlns="http://www.w3.org/2000/svg"
 width="67.000000pt" height="67.000000pt" viewBox="0 0 67.000000 67.000000"
 preserveAspectRatio="xMidYMid meet">

<g transform="translate(0.000000,67.000000) scale(0.100000,-0.100000)"
fill="#000000" stroke="none">
<path d="M0 335 l0 -335 335 0 335 0 0 335 0 335 -335 0 -335 0 0 -335z m310
171 c0 -19 -7 -26 -30 -31 -144 -32 -144 -248 0 -280 24 -5 30 -12 30 -32 0
-24 -3 -25 -35 -20 -132 21 -200 179 -128 295 29 48 96 92 140 92 18 0 23 -5
23 -24z m240 0 c0 -19 -7 -26 -30 -31 -37 -8 -76 -39 -95 -75 -8 -16 -15 -31
-15 -35 0 -3 27 -5 60 -5 57 0 60 -1 60 -25 0 -24 -3 -25 -61 -25 -58 0 -60
-1 -54 -22 9 -33 70 -88 105 -95 23 -4 30 -11 30 -29 0 -31 -35 -32 -90 -4
-71 36 -119 129 -104 205 10 56 57 119 105 143 60 30 89 29 89 -2z"/>
</g>
</svg>
