<svg id="icon_ue" xmlns="http://www.w3.org/2000/svg" xmlns:xlink="http://www.w3.org/1999/xlink" width="24.005" height="24" viewBox="0 0 24.005 24">
  <defs>
    <clipPath id="clip-path">
      <rect id="Rectangle_1004" data-name="Rectangle 1004" width="24.005" height="24" fill="none"/>
    </clipPath>
  </defs>
  <g id="Group_1772" data-name="Group 1772" clip-path="url(#clip-path)">
    <path id="Path_1345" data-name="Path 1345" d="M23.995,3.362a.854.854,0,0,0-.875-.5h0c-4.08.006-8.229.006-12.24.006h-6.5l.036-.058A1.839,1.839,0,0,0,1.431.663a1.819,1.819,0,0,0,.138,2.5.413.413,0,0,1,.144.344c0,5.265,0,10.618,0,15.8v2.4H1.663c-.1,0-.194,0-.289,0a1.35,1.35,0,0,0-1.283.959c-.128.47-.214,1,.394,1.329L.509,24H5.18l.031-.034c.039-.043.086-.084.136-.128a.829.829,0,0,0,.283-.361,1.365,1.365,0,0,0-.221-1.2A1.433,1.433,0,0,0,4.268,21.7c-.089,0-.177,0-.264,0h-.01V19.658H19.5c.988,0,2.292,0,3.616.006h.006a.845.845,0,0,0,.87-.511l.009-.02V3.383ZM3.978,17.582V14.689q0-5.176,0-10.353V3.775h.65c.3,0,.6,0,.906,0H23.079v14.97H14.035a.986.986,0,0,0-.169,0l-.052,0H3.978v-.206q0-.169,0-.339c0-.206,0-.413,0-.618M1.905,1.84A.941.941,0,0,1,2.843.91h.012a.921.921,0,0,1,.655.285.932.932,0,0,1,.264.673.942.942,0,0,1-.946.911.955.955,0,0,1-.923-.94M3.07,15.654v1.755c0,.031,0,.061,0,.092v4.183H2.639V3.675H3.07V15.54c0,.039,0,.078,0,.115M.943,23.083a.481.481,0,0,1,.106-.326.424.424,0,0,1,.331-.147c.942-.01,1.925-.01,2.922,0a.41.41,0,0,1,.306.123.557.557,0,0,1,.134.35Z" transform="translate(0 0.001)"/>
    <path id="Path_1346" data-name="Path 1346" d="M248.766,97.891c-.015.355.007.6.162.716s.392.072.746-.046a.91.91,0,0,1,.7,0,1.812,1.812,0,0,0,.284.09l.092.024.013,0h.034a.458.458,0,0,0,.484-.524,1.413,1.413,0,0,1,.324-1.079.577.577,0,0,0,.177-.527c-.048-.154-.2-.267-.455-.338a1.4,1.4,0,0,1-.857-.627.559.559,0,0,0-.442-.311h0a.576.576,0,0,0-.453.316,1.344,1.344,0,0,1-.813.613c-.275.072-.428.176-.482.325a.679.679,0,0,0,.173.574,1.187,1.187,0,0,1,.313.787m.705-.967a.577.577,0,0,1,1.113,0l-.227.659h-.668Z" transform="translate(-232.855 -89.364)"/>
    <path id="Path_1347" data-name="Path 1347" d="M190.056,243.276a.561.561,0,0,0,.171.517.57.57,0,0,0,.553.007,1.363,1.363,0,0,1,1.058,0,.86.86,0,0,0,.312.069.406.406,0,0,0,.245-.074.574.574,0,0,0,.177-.535,1.3,1.3,0,0,1,.332-1,.844.844,0,0,0,.129-.223c.009-.02.017-.038.024-.053l.013-.025v-.028a.478.478,0,0,0-.39-.507,1.4,1.4,0,0,1-.935-.659.519.519,0,0,0-.429-.3c-.114,0-.28.05-.438.3a1.427,1.427,0,0,1-.892.65.546.546,0,0,0-.427.321.555.555,0,0,0,.158.519,1.416,1.416,0,0,1,.34,1.03m1.624-.48a1.365,1.365,0,0,0-.4-.071.779.779,0,0,0-.294.054l-.217-.656.561-.41a.958.958,0,0,0,.572.393,1,1,0,0,0-.218.689" transform="translate(-177.779 -225.538)"/>
    <path id="Path_1348" data-name="Path 1348" d="M190.093,70.133a.54.54,0,0,0,.169.5.4.4,0,0,0,.246.075.844.844,0,0,0,.3-.064,1.386,1.386,0,0,1,1.061-.01.587.587,0,0,0,.565,0,.6.6,0,0,0,.179-.545,1.258,1.258,0,0,1,.311-.962.943.943,0,0,0,.142-.232c.01-.021.019-.04.027-.054l.013-.024v-.027a.484.484,0,0,0-.4-.532,1.378,1.378,0,0,1-.927-.665.511.511,0,0,0-.424-.289h0a.517.517,0,0,0-.428.29,1.446,1.446,0,0,1-.91.663.52.52,0,0,0-.414.314.534.534,0,0,0,.148.512,1.433,1.433,0,0,1,.347,1.05m.706-1.168.552-.393.557.408a.979.979,0,0,0-.2.663,1.166,1.166,0,0,0-.383-.069.9.9,0,0,0-.311.054Z" transform="translate(-177.816 -63.128)"/>
    <path id="Path_1349" data-name="Path 1349" d="M248.753,215.305a.517.517,0,0,0,.173.493.528.528,0,0,0,.533.02,1.432,1.432,0,0,1,1.106,0,.772.772,0,0,0,.283.061.411.411,0,0,0,.249-.075.518.518,0,0,0,.174-.492,1.329,1.329,0,0,1,.34-1.047.825.825,0,0,0,.132-.224c.009-.021.018-.04.026-.056l.015-.027,0-.031a.511.511,0,0,0-.425-.505,1.332,1.332,0,0,1-.872-.6c-.15-.235-.3-.35-.465-.351h0c-.162,0-.316.113-.468.346a1.247,1.247,0,0,1-.823.59.575.575,0,0,0-.081.024.539.539,0,0,0-.383.342.51.51,0,0,0,.14.466,1.441,1.441,0,0,1,.353,1.071m.7-1.165.565-.4.548.4-.216.643h-.686a.989.989,0,0,0-.212-.64" transform="translate(-232.843 -199.283)"/>
    <path id="Path_1350" data-name="Path 1350" d="M103.53,155.983a.337.337,0,0,0,.058.288,1.2,1.2,0,0,0,.363.259.225.225,0,0,0,.09.017.616.616,0,0,0,.239-.067,1.169,1.169,0,0,1,1.026,0,.37.37,0,0,0,.066.022l.016,0a.538.538,0,0,0,.513-.054.481.481,0,0,0,.15-.438,1.47,1.47,0,0,1,.349-1.1.532.532,0,0,0,.152-.5.548.548,0,0,0-.424-.325,1.316,1.316,0,0,1-.887-.647.469.469,0,0,0-.135-.161,1.623,1.623,0,0,0-.182-.1l-.1-.054-.062-.034-.055.045c-.032.026-.066.049-.1.074a.735.735,0,0,0-.228.21,1.421,1.421,0,0,1-.926.678.506.506,0,0,0-.4.314.515.515,0,0,0,.145.5,1.335,1.335,0,0,1,.34,1.067m.716-1.191a.993.993,0,0,0,.548-.42,1.01,1.01,0,0,0,.559.42l-.224.656h-.675Z" transform="translate(-96.634 -143.594)"/>
    <path id="Path_1351" data-name="Path 1351" d="M134.066,213.448a1.405,1.405,0,0,1-.858-.63.567.567,0,0,0-.445-.314h0a.574.574,0,0,0-.449.32,1.271,1.271,0,0,1-.854.618.415.415,0,0,0-.06.016.544.544,0,0,0-.389.346.5.5,0,0,0,.135.458,1.487,1.487,0,0,1,.36,1.073.548.548,0,0,0,.16.486.592.592,0,0,0,.553.034l.091-.025a1.2,1.2,0,0,0,.211-.069.592.592,0,0,1,.5,0,3.537,3.537,0,0,0,.358.112l.128.036.015,0h.016a.486.486,0,0,0,.358-.14.5.5,0,0,0,.129-.376,1.475,1.475,0,0,1,.32-1.087.573.573,0,0,0,.178-.53c-.049-.156-.2-.269-.453-.337m-.756.722-.212.659a.95.95,0,0,0-.7.02,1.01,1.01,0,0,0-.2-.672l.558-.408Z" transform="translate(-122.867 -199.318)"/>
    <path id="Path_1352" data-name="Path 1352" d="M131.447,98.294a.231.231,0,0,0,0,.065v.008a.479.479,0,0,0,.195.331.461.461,0,0,0,.364.063,1.737,1.737,0,0,0,.353-.109.8.8,0,0,1,.693,0,1.9,1.9,0,0,0,.3.093l.092.024.016,0h.017a.468.468,0,0,0,.486-.522,1.462,1.462,0,0,1,.31-1.067.587.587,0,0,0,.189-.536c-.047-.156-.2-.273-.462-.346a1.236,1.236,0,0,1-.832-.61.351.351,0,0,0-.042-.059l-.01-.012a.53.53,0,0,0-.443-.249.486.486,0,0,0-.384.265,1.368,1.368,0,0,1-.943.682.435.435,0,0,0-.088.027.508.508,0,0,0-.314.341.41.41,0,0,0,.1.368,1.558,1.558,0,0,1,.4,1.237m1.626-.59a1.223,1.223,0,0,0-.392-.07.863.863,0,0,0-.308.055l-.219-.674a1,1,0,0,0,.553-.42,1.014,1.014,0,0,0,.586.421,1.029,1.029,0,0,0-.219.689" transform="translate(-122.813 -89.454)"/>
    <path id="Path_1353" data-name="Path 1353" d="M277.906,153.83a.527.527,0,0,0-.434.3,1.452,1.452,0,0,1-.913.663.461.461,0,0,0-.266.812,1.46,1.46,0,0,1,.35,1.052.561.561,0,0,0,.174.513.582.582,0,0,0,.559,0,1.38,1.38,0,0,1,1.041,0,.959.959,0,0,0,.329.071.393.393,0,0,0,.237-.07.577.577,0,0,0,.176-.525,1.354,1.354,0,0,1,.345-1.026.768.768,0,0,0,.125-.209c.008-.018.015-.033.021-.045l.014-.025v-.028a.489.489,0,0,0-.408-.522,1.385,1.385,0,0,1-.928-.668.506.506,0,0,0-.419-.29h0m-.556,1.652a.949.949,0,0,0,.543-.4l.557.414-.209.637h-.678Z" transform="translate(-259 -144.285)"/>
  </g>
</svg>
